# xmcd CD database file
#
# Track frame offsets:
#	150
#	18227
#	30630
#	50963
#	74283
#	89786
#	135036
#	157215
#	174562
#	190808
#	212100
#	229335
#	245645
#
# Disc length: 3847 seconds
#
# Revision: 0
# Processed by: cddbd v1.5.2PL0 Copyright (c) Steve Scherf et al.
# Submitted via: CDex 1.51
#
DISCID=bc0f050d
DTITLE=the silt - red whistle
DYEAR=2000
DGENRE=Country
TTITLE0=here we go
TTITLE1=a song about a red whistle
TTITLE2=time is a-wasting
TTITLE3=in the earth i go
TTITLE4=what have i been through
TTITLE5=it's too bad kites don't smoke
TTITLE6=golden melody #7
TTITLE7=on the train
TTITLE8=when i'm a dragon
TTITLE9=blue tomorrow
TTITLE10=apples
TTITLE11=tell me white horses
TTITLE12=your in limbo
EXTD=YEAR: 2000
EXTT0=
EXTT1=
EXTT2=
EXTT3=
EXTT4=
EXTT5=
EXTT6=
EXTT7=
EXTT8=
EXTT9=
EXTT10=
EXTT11=
EXTT12=
PLAYORDER=
